<?xml version="1.0" encoding="UTF-8" standalone="no"?><!DOCTYPE svg PUBLIC "-//W3C//DTD SVG 1.1//EN" "http://www.w3.org/Graphics/SVG/1.1/DTD/svg11.dtd"><svg width="100%" height="100%" viewBox="0 0 2648 2545" version="1.1" xmlns="http://www.w3.org/2000/svg" xmlnsXlink="http://www.w3.org/1999/xlink" xmlSpace="preserve" xmlnsSerif="http://www.serif.com/" style="fill-rule:evenodd;clip-rule:evenodd;stroke-linecap:round;stroke-linejoin:round;stroke-miterlimit:1.5;"><rect id="Mesa-de-trabajo1" serifId="Mesa de trabajo1" x="0" y="0" width="2647.04" height="2544.24" style="fill:none;"/><path d="M1388.69,363.589c-488.181,7.284 -877.861,419.931 -870.375,921.673c7.482,501.406 409.632,902.574 897.486,895.295c488.181,-7.285 877.861,-419.932 870.375,-921.673l-883.93,13.189l-13.556,-908.484Z" style="fill:#00dbff;stroke:#000;stroke-width:5.56px;"/><g><path d="M1829.38,1022.31l-87.894,35.633l35.633,87.895l87.894,-35.634l-35.633,-87.894Z" style="fill:#f00;"/><path d="M1726.3,1068.47l-80.735,32.731l32.73,80.736l80.736,-32.731l-32.731,-80.736Z" style="fill:#f00;"/><path d="M1627.53,1108.05l-80.736,32.731l32.731,80.736l80.736,-32.731l-32.731,-80.736Z" style="fill:#f00;"/><path d="M1534.2,1146.35l-80.736,32.73l32.731,80.736l80.736,-32.731l-32.731,-80.735Z" style="fill:#f00;"/><path d="M1790.01,924.767l-87.894,35.633l35.633,87.894l87.894,-35.633l-35.633,-87.894Z" style="fill:#f00;"/></g><path d="M1313.38,363.738c-488.181,7.284 -877.861,419.931 -870.375,921.673c7.482,501.406 409.631,902.574 897.486,895.295c488.181,-7.284 877.861,-419.931 870.375,-921.673l-883.931,13.189l-13.555,-908.484Z" style="fill:#fff;stroke:#000;stroke-width:5.56px;"/><path d="M943.638,968.366c-68.852,1.027 -123.792,60.49 -122.713,132.813c1.078,72.274 57.815,130.119 126.621,129.092c33.064,-0.493 64.567,-14.763 87.58,-39.67l-89.534,-91.282l-1.954,-130.953Z"/></svg>